<?xml version="1.0" standalone="no"?>
<!DOCTYPE svg PUBLIC "-//W3C//DTD SVG 20010904//EN"
 "http://www.w3.org/TR/2001/REC-SVG-20010904/DTD/svg10.dtd">
<svg version="1.0" xmlns="http://www.w3.org/2000/svg"
 width="900.000000pt" height="900.000000pt" viewBox="0 0 900.000000 900.000000"
 preserveAspectRatio="xMidYMid meet">
<metadata>
Created by potrace 1.10, written by Peter Selinger 2001-2011
</metadata>
<g transform="translate(0.000000,900.000000) scale(0.100000,-0.100000)"
fill="#000000" stroke="none">
<path d="M290 7773 c0 -109 5 -216 11 -238 6 -22 14 -58 18 -80 29 -151 140
-350 242 -435 23 -19 47 -39 53 -45 28 -25 77 -54 148 -89 43 -21 83 -45 90
-53 9 -12 9 -40 -1 -136 -6 -67 -15 -212 -18 -322 -5 -181 -3 -209 17 -295 11
-52 25 -99 31 -104 5 -6 9 -19 9 -29 0 -10 7 -31 15 -45 16 -30 32 -96 45
-187 5 -33 14 -76 20 -95 5 -19 10 -55 10 -80 1 -25 7 -63 15 -85 8 -22 15
-59 15 -83 0 -23 7 -59 15 -79 8 -19 15 -46 15 -59 0 -13 6 -41 14 -61 7 -21
21 -65 30 -98 63 -216 170 -360 311 -417 101 -40 125 -43 390 -43 l260 0 70
29 c76 32 139 75 227 155 81 74 163 82 226 23 67 -63 64 -156 -6 -234 -136
-151 -391 -277 -559 -278 l-63 0 0 -46 c0 -25 7 -78 15 -118 9 -39 23 -105 31
-146 8 -41 20 -88 26 -105 6 -16 13 -51 17 -78 4 -26 13 -53 19 -59 7 -7 12
-20 12 -29 0 -27 106 -256 150 -324 11 -16 23 -37 27 -45 15 -34 132 -179 188
-235 64 -64 162 -142 207 -166 159 -84 217 -107 303 -120 165 -26 332 -20 446
16 26 8 52 15 59 15 7 0 26 6 43 14 137 60 168 69 181 55 14 -15 46 -152 46
-199 0 -50 42 -149 104 -245 29 -45 44 -83 58 -150 18 -81 19 -119 14 -380 -5
-280 -21 -468 -43 -510 -5 -11 -16 -48 -23 -81 -10 -50 -10 -69 0 -100 20 -59
56 -100 110 -123 46 -20 66 -21 329 -21 153 0 286 3 295 6 14 6 16 70 17 618
0 336 5 670 9 741 8 126 13 156 47 275 17 58 93 218 135 285 41 65 105 205
131 284 14 41 31 77 39 82 8 4 50 11 94 14 109 8 280 45 394 86 174 61 255 96
509 218 34 17 68 31 73 31 5 0 24 6 41 14 52 23 162 46 218 46 59 0 166 -26
190 -47 8 -7 22 -13 30 -13 44 0 182 -160 240 -277 43 -88 129 -206 193 -263
48 -43 122 -100 242 -185 31 -22 84 -70 118 -106 51 -53 66 -77 79 -125 9 -33
17 -74 17 -92 0 -30 50 -146 89 -207 47 -72 59 -107 76 -209 15 -93 17 -144
11 -340 -8 -299 -26 -459 -61 -556 -44 -124 -11 -204 105 -258 28 -13 81 -17
269 -20 258 -4 297 2 336 56 19 26 20 48 27 587 4 308 11 596 16 640 12 108
30 217 48 292 8 34 14 73 14 87 0 15 6 52 14 84 24 95 46 211 46 243 0 17 5
39 10 49 6 11 14 56 19 102 5 46 14 108 20 138 26 140 41 240 41 276 0 21 5
55 10 74 6 19 15 100 21 180 5 80 13 183 19 230 12 113 12 827 -1 960 -5 58
-13 161 -18 230 -5 69 -14 138 -20 153 -6 16 -11 42 -11 59 0 30 -14 87 -46
189 -8 26 -14 54 -14 63 0 8 -6 30 -14 48 -8 18 -22 53 -32 78 -114 294 -336
554 -589 690 -119 64 -178 93 -209 101 -17 4 -44 12 -61 17 -65 22 -143 42
-166 42 -13 0 -42 7 -64 15 -22 8 -63 14 -90 15 -28 0 -66 5 -85 11 -19 6 -80
14 -135 19 -102 8 -242 22 -420 41 -55 6 -185 15 -290 20 -104 5 -233 13 -285
19 -52 5 -227 10 -389 10 -292 0 -306 1 -521 42 -147 27 -263 55 -379 90 -19
6 -76 21 -125 33 -50 13 -104 28 -119 34 -16 6 -40 11 -54 11 -14 0 -46 7 -72
15 -69 21 -204 48 -225 44 -10 -3 -27 -25 -40 -57 -12 -29 -28 -58 -34 -64 -7
-7 -12 -18 -12 -25 0 -19 -91 -147 -160 -226 -88 -100 -332 -262 -434 -288
-17 -4 -44 -12 -61 -17 -141 -48 -265 -62 -319 -37 -56 27 -81 69 -81 136 0
45 5 63 26 90 29 37 101 69 157 69 18 0 49 7 69 15 19 8 45 15 56 15 11 0 67
24 125 53 167 82 295 213 379 387 59 121 75 178 113 395 12 72 14 305 2 305
-5 0 -77 -68 -161 -150 -83 -83 -184 -174 -224 -204 -68 -51 -199 -126 -219
-126 -6 0 -24 -6 -41 -14 -115 -49 -474 -75 -555 -40 -67 30 -256 52 -362 43
-193 -18 -269 -28 -291 -40 -35 -19 -344 -19 -379 1 -16 9 -67 15 -140 18
-102 4 -121 2 -162 -17 -108 -49 -382 -6 -516 81 -24 15 -47 28 -51 28 -5 0
-15 7 -22 16 -8 9 -30 27 -49 39 -19 13 -112 100 -206 194 -95 94 -175 171
-178 171 -3 0 -6 -89 -6 -197z"/>
<path d="M6175 3508 c-61 -21 -105 -43 -105 -54 0 -6 15 -28 33 -50 19 -21 74
-93 123 -159 121 -162 166 -256 190 -400 8 -44 18 -105 23 -135 9 -51 45 -132
91 -205 50 -77 59 -105 70 -206 21 -185 3 -765 -26 -821 -8 -15 -14 -36 -14
-47 0 -11 -4 -22 -9 -25 -14 -9 -23 -79 -16 -119 9 -46 68 -115 119 -138 36
-16 70 -19 284 -19 189 0 244 3 248 13 2 7 -2 32 -11 56 -27 78 -12 242 33
351 29 69 45 689 20 747 -7 15 -24 46 -38 68 -57 88 -120 248 -120 304 0 16
-3 36 -6 45 -6 15 -137 126 -149 126 -4 0 -34 21 -68 47 -164 126 -289 263
-361 398 -79 146 -99 174 -150 209 -42 28 -103 33 -161 14z"/>
<path d="M3380 2543 c-19 -2 -68 -10 -109 -18 -95 -19 -202 -19 -312 1 -120
22 -127 18 -83 -48 19 -29 39 -70 45 -91 13 -49 13 -764 0 -833 -5 -28 -17
-70 -27 -95 -18 -47 -30 -165 -20 -204 9 -35 68 -90 117 -109 38 -14 80 -16
289 -14 l245 3 -3 40 c-1 22 -5 75 -8 119 -6 80 6 173 31 231 21 50 38 271 39
517 l1 233 -29 50 c-16 28 -37 65 -47 83 -9 18 -22 38 -27 45 -5 7 -13 27 -17
45 -5 26 -34 57 -47 50 -2 0 -19 -3 -38 -5z"/>
</g>
</svg>
